<?xml version="1.0" encoding="UTF-8"?>
<svg width="24px" height="32px" viewBox="0 0 24 32" version="1.1" xmlns="http://www.w3.org/2000/svg" xmlns:xlink="http://www.w3.org/1999/xlink">
    <!-- Generator: Sketch 62 (91390) - https://sketch.com -->
    <title>CSV icon</title>
    <desc>Created with Sketch.</desc>
    <defs>
        <path d="M2.02371542,0 L15.541401,0 C16.115097,0 16.6618344,0.240642816 17.0456168,0.662070537 L22.7532277,6.92954255 C23.0876714,7.29679196 23.2727273,7.77338846 23.2727273,8.26747201 L23.2727273,30 C23.2727273,31.1045695 22.366679,32 21.2490119,32 L2.02371542,32 C0.906048253,32 0,31.1045695 0,30 L0,2 C0,0.8954305 0.906048253,0 2.02371542,0 Z" id="path-1"></path>
    </defs>
    <g id="Quarterly-Report-Dropbox" stroke="none" stroke-width="1" fill="none" fill-rule="evenodd">
        <g id="Success" transform="translate(-616.000000, -731.000000)">
            <g id="Line-item-1" transform="translate(600.000000, 719.000000)">
                <g id="CSV-icon" transform="translate(16.000000, 12.000000)">
                    <g id="Rectangle">
                        <use fill="#FFFFFF" xlink:href="#path-1"></use>
                        <path stroke="#B5BFD2" stroke-width="1" d="M21.2490119,31.5 L2.02371542,31.5 C1.60227262,31.5 1.22046911,31.3316181 0.944195996,31.0585825 C0.67006867,30.7876676 0.5,30.4135458 0.5,30 L0.5,2 C0.5,1.58645424 0.67006867,1.21233236 0.944195996,0.941417463 C1.22046911,0.668381927 1.60227262,0.5 2.02371542,0.5 L15.541401,0.5 C15.9739259,0.5 16.3864745,0.680869983 16.6759378,0.998726813 L22.3835487,7.26619882 C22.6338381,7.54103917 22.7727273,7.89761327 22.7727273,8.26747201 L22.7727273,30 C22.7727273,30.4135458 22.6026586,30.7876676 22.3285313,31.0585825 C22.0522582,31.3316181 21.6704547,31.5 21.2490119,31.5 Z" stroke-linejoin="square" fill-opacity="0.2" fill="#F0F2F5"></path>
                    </g>
                    <path d="M15.0634645,13.7453977 C15.4776305,15.7042116 15.2079837,17.7547748 14.4618505,19.5192075 C13.7657928,21.1652233 12.6543913,22.5669647 11.2825214,23.3970398 L10.572801,22.5019332 C11.3304102,21.9879137 12.0272607,21.3456103 12.5242615,20.5974492 C13.0510977,19.8043754 13.3563651,18.8941938 13.2966695,17.889215 C13.2821829,17.645331 13.247015,17.4095348 13.1932083,17.1819526 C13.0073942,17.2875624 12.8158195,17.377293 12.6204758,17.4512677 C12.1671457,17.6229393 11.6728151,17.7175961 11.1551126,17.7175961 C10.0755234,17.7175961 9.09704169,17.3055922 8.38917707,16.6360176 C7.691657,15.9762281 7.25757576,15.0654868 7.25757576,14.0579323 C7.25757576,13.0503777 7.691657,12.1396365 8.38917707,11.4798469 C9.09704169,10.8102723 10.0755234,10.3982684 11.1551126,10.3982684 C12.1579298,10.3982684 13.0055342,10.7333418 13.6579569,11.2887603 C14.3766633,11.9006072 14.8580948,12.7740937 15.0634645,13.7453977 Z" id="Path" stroke="#B5BFD2" fill-opacity="0.4" fill="#B5BFD2"></path>
                </g>
            </g>
        </g>
    </g>
</svg>