<?xml version="1.0" encoding="UTF-8"?>
<svg width="23px" height="32px" viewBox="0 0 23 32" version="1.1" xmlns="http://www.w3.org/2000/svg" xmlns:xlink="http://www.w3.org/1999/xlink">
    <!-- Generator: Sketch 62 (91390) - https://sketch.com -->
    <title>XLSX icon</title>
    <desc>Created with Sketch.</desc>
    <defs>
        <path d="M2,0 L15.3592752,0 C15.9262482,0 16.4665785,0.240642816 16.8458635,0.662070537 L22.4865883,6.92954255 C22.8171128,7.29679196 23,7.77338846 23,8.26747201 L23,30 C23,31.1045695 22.1045695,32 21,32 L2,32 C0.8954305,32 0,31.1045695 0,30 L0,2 C0,0.8954305 0.8954305,0 2,0 Z" id="path-1"></path>
    </defs>
    <g id="Quarterly-Report-Dropbox" stroke="none" stroke-width="1" fill="none" fill-rule="evenodd">
        <g id="Success" transform="translate(-616.000000, -786.000000)">
            <g id="Line-item-2" transform="translate(600.000000, 774.000000)">
                <g id="XLSX-icon" transform="translate(16.000000, 12.000000)">
                    <g id="Rectangle-Copy-4">
                        <use fill="#FFFFFF" xlink:href="#path-1"></use>
                        <path stroke="#169A2D" stroke-width="1" d="M21,31.5 L2,31.5 C1.58578644,31.5 1.21078644,31.3321068 0.939339828,31.0606602 C0.667893219,30.7892136 0.5,30.4142136 0.5,30 L0.5,2 C0.5,1.58578644 0.667893219,1.21078644 0.939339828,0.939339828 C1.21078644,0.667893219 1.58578644,0.5 2,0.5 L15.3592752,0.5 C15.7845049,0.5 16.1897527,0.680482112 16.4742164,0.996552903 L22.1149412,7.26402491 C22.3628346,7.53946197 22.5,7.89690934 22.5,8.26747201 L22.5,30 C22.5,30.4142136 22.3321068,30.7892136 22.0606602,31.0606602 C21.7892136,31.3321068 21.4142136,31.5 21,31.5 Z" stroke-linejoin="square" fill-opacity="0.1" fill="#1CC23A"></path>
                    </g>
                    <g id="Group-30" transform="translate(5.000000, 13.000000)" stroke="#169A2D">
                        <rect id="Rectangle-Copy-9" fill-opacity="0.4" fill="#1CC23A" x="0.5" y="0.5" width="12" height="9"></rect>
                        <rect id="Rectangle" fill-opacity="0.4" fill="#1CC23A" x="0.5" y="0.5" width="3" height="9"></rect>
                        <rect id="Rectangle-Copy-10" x="0.5" y="3.5" width="12" height="3"></rect>
                    </g>
                </g>
            </g>
        </g>
    </g>
</svg>